<?xml version="1.0" standalone="no"?><!DOCTYPE svg PUBLIC "-//W3C//DTD SVG 1.1//EN" "http://www.w3.org/Graphics/SVG/1.1/DTD/svg11.dtd"><svg t="1533697692785" class="icon" style="" viewBox="0 0 1024 1024" version="1.1" xmlns="http://www.w3.org/2000/svg" p-id="2328" xmlns:xlink="http://www.w3.org/1999/xlink" width="200" height="200"><defs><style type="text/css"></style></defs><path d="M512 0C229.248 0 0 229.248 0 512c0 282.752 229.248 512 512 512s512-229.248 512-512C1024 229.248 794.752 0 512 0zM944 512c0 87.616-26.24 169.024-71.104 237.12l-664.832-544C286.144 127.808 393.472 80 512 80 750.592 80 944 273.408 944 512zM80 512c0-87.616 26.24-169.024 71.104-237.12l664.832 544C737.856 896.192 630.528 944 512 944 273.408 944 80 750.592 80 512z" p-id="2329"></path></svg>