<?xml version="1.0" standalone="no"?><!DOCTYPE svg PUBLIC "-//W3C//DTD SVG 1.1//EN" "http://www.w3.org/Graphics/SVG/1.1/DTD/svg11.dtd"><svg t="1532933128391" class="icon" style="" viewBox="0 0 1024 1024" version="1.1" xmlns="http://www.w3.org/2000/svg" p-id="7485" xmlns:xlink="http://www.w3.org/1999/xlink" width="200" height="200"><defs><style type="text/css"></style></defs><path d="M684.8 153.6c-153.6 0-300.8 0-454.4 0-19.2 0-19.2 25.6 0 25.6 153.6 0 300.8 0 454.4 0C704 179.2 704 153.6 684.8 153.6z" p-id="7486"></path><path d="M684.8 288c-153.6 0-300.8 0-454.4 0-19.2 0-19.2 25.6 0 25.6 153.6 0 300.8 0 454.4 0C704 313.6 704 288 684.8 288z" p-id="7487"></path><path d="M684.8 422.4c-153.6 0-300.8 0-454.4 0C217.6 422.4 217.6 448 230.4 448 384 448 531.2 448 684.8 448 704 448 704 422.4 684.8 422.4z" p-id="7488"></path><path d="M544 825.6c0-108.8 89.6-198.4 198.4-198.4 44.8 0 89.6 19.2 121.6 44.8L864 121.6c0-70.4-57.6-121.6-121.6-121.6L179.2 0C108.8 0 51.2 57.6 51.2 121.6l0 774.4c0 70.4 57.6 121.6 121.6 121.6l563.2 0c6.4 0 19.2 0 25.6 0-6.4 0-19.2 0-25.6 0C633.6 1024 544 934.4 544 825.6zM102.4 563.2 102.4 121.6c0-38.4 32-76.8 76.8-76.8l563.2 0c38.4 0 76.8 32 76.8 76.8l0 441.6L102.4 563.2z" p-id="7489"></path><path d="M998.4 633.6c-147.2 44.8-243.2 236.8-243.2 236.8 0-32-25.6-89.6-57.6-96l-76.8 38.4c57.6 25.6 134.4 160 128 166.4 76.8-102.4 166.4-172.8 243.2-217.6C992 723.2 992 684.8 998.4 633.6z" p-id="7490"></path></svg>